<?xml version="1.0" encoding="utf-8"?>
<!-- Generator: Adobe Illustrator 26.0.3, SVG Export Plug-In . SVG Version: 6.00 Build 0)  -->
<svg version="1.1" id="Layer_1" xmlns="http://www.w3.org/2000/svg" xmlns:xlink="http://www.w3.org/1999/xlink" x="0px" y="0px"
	 viewBox="0 0 256 114" style="enable-background:new 0 0 256 114;" xml:space="preserve">
<style type="text/css">
	.st0{fill:#FFFFFF;}
</style>
<g>
	<path class="st0" d="M51.08,47.36l0.29-0.07c0.27-0.07,0.5-0.25,0.67-0.54c0.17-0.29,0.31-0.62,0.41-0.97
		c0.1-0.36,0.14-0.73,0.12-1.12c-0.02-0.39-0.06-0.74-0.14-1.05l-7.79-30.73l-6.15,38.99L15.72,22.13l7.33,28.92
		c0.08,0.31,0.2,0.64,0.38,0.99c0.17,0.35,0.38,0.66,0.64,0.93c0.25,0.27,0.53,0.49,0.82,0.66c0.29,0.17,0.59,0.22,0.91,0.14
		l0.29-0.07l0.15,0.58l-6.37,1.61l-0.15-0.58l0.29-0.07c0.27-0.07,0.5-0.25,0.67-0.54c0.17-0.29,0.3-0.61,0.38-0.97
		c0.08-0.35,0.11-0.72,0.09-1.11c-0.02-0.39-0.06-0.74-0.14-1.05l-7.89-31.13c-0.07-0.27-0.19-0.57-0.35-0.91
		c-0.17-0.33-0.37-0.63-0.6-0.9c-0.24-0.27-0.5-0.49-0.78-0.64c-0.29-0.15-0.57-0.2-0.84-0.13l-0.29,0.07l-0.15-0.58l5.96-1.51
		L37.7,44.35l5.45-35.39l6.6-1.67l0.15,0.58l-0.29,0.07c-0.31,0.08-0.56,0.26-0.74,0.53c-0.18,0.27-0.32,0.59-0.41,0.94
		c-0.1,0.36-0.14,0.72-0.13,1.09c0.01,0.37,0.05,0.69,0.12,0.96l7.89,31.13c0.08,0.31,0.2,0.64,0.38,0.99
		c0.17,0.35,0.38,0.66,0.64,0.93c0.25,0.27,0.53,0.49,0.82,0.66s0.59,0.22,0.91,0.14l0.29-0.07l0.15,0.58l-8.29,2.1L51.08,47.36z"/>
	<path class="st0" d="M59.01,5.86l8.48-1.13l0.08,0.6l-0.3,0.04c-0.32,0.04-0.58,0.19-0.79,0.44s-0.38,0.55-0.52,0.89
		c-0.14,0.34-0.22,0.7-0.25,1.07c-0.03,0.37-0.03,0.69,0.01,0.97l3.15,23.59c0.21,1.55,0.56,2.97,1.05,4.24
		c0.49,1.27,1.18,2.33,2.07,3.19c0.88,0.85,1.98,1.47,3.29,1.84c1.31,0.37,2.86,0.44,4.65,0.2c1.99-0.27,3.54-0.8,4.65-1.59
		c1.11-0.8,1.92-1.75,2.42-2.85c0.5-1.1,0.77-2.3,0.8-3.6c0.03-1.3-0.04-2.57-0.2-3.8L84.42,6.24c-0.04-0.28-0.12-0.59-0.25-0.94
		c-0.13-0.35-0.3-0.67-0.52-0.96c-0.22-0.29-0.47-0.54-0.73-0.72c-0.27-0.19-0.54-0.26-0.82-0.23l-0.3,0.04l-0.08-0.6l6.51-0.87
		l0.08,0.6L88,2.6c-0.32,0.04-0.57,0.19-0.76,0.44c-0.19,0.25-0.35,0.54-0.49,0.89s-0.22,0.7-0.25,1.07s-0.03,0.69,0.01,0.97
		l3.14,23.54c0.35,2.59,0.31,4.75-0.11,6.49c-0.42,1.74-1.12,3.16-2.11,4.26c-0.99,1.1-2.2,1.94-3.65,2.49
		c-1.45,0.56-3,0.95-4.68,1.17c-1.79,0.24-3.48,0.27-5.06,0.1c-1.58-0.17-3-0.66-4.24-1.47c-1.24-0.81-2.29-1.99-3.15-3.56
		s-1.45-3.61-1.79-6.12l-3.15-23.6c-0.04-0.28-0.12-0.59-0.25-0.94c-0.13-0.35-0.3-0.67-0.52-0.96c-0.22-0.29-0.47-0.54-0.73-0.72
		c-0.27-0.19-0.54-0.26-0.82-0.22l-0.3,0.04L59.01,5.86z"/>
	<path class="st0" d="M96.75,41.16l18.16-38.59l-13.96,0.68c-0.64,0.03-1.2,0.21-1.66,0.53c-0.47,0.32-0.85,0.73-1.15,1.2
		c-0.3,0.48-0.52,0.99-0.65,1.54c-0.13,0.55-0.19,1.06-0.17,1.55l-0.6,0.03l-0.33-6.74l24.26-1.18l-18.16,38.59l15.47-0.75
		c0.64-0.03,1.2-0.21,1.66-0.53c0.47-0.32,0.85-0.74,1.15-1.23s0.51-1.02,0.65-1.57c0.13-0.55,0.19-1.06,0.17-1.55l0.6-0.03
		l0.33,6.8L96.75,41.16z"/>
	<path class="st0" d="M126.91,0.27l8.56,0.09l-0.01,0.6l-0.3,0c-0.28,0-0.54,0.11-0.79,0.32c-0.24,0.22-0.45,0.48-0.61,0.78
		c-0.16,0.3-0.3,0.64-0.4,1.02c-0.1,0.38-0.16,0.71-0.16,0.99l-0.33,32.12c0,0.32,0.03,0.67,0.11,1.06c0.08,0.38,0.2,0.74,0.38,1.06
		c0.18,0.32,0.38,0.61,0.59,0.85c0.22,0.24,0.49,0.37,0.81,0.37l0.3,0l-0.01,0.6l-8.56-0.09l0.01-0.6l0.3,0
		c0.32,0,0.6-0.1,0.85-0.32c0.24-0.22,0.46-0.5,0.64-0.84c0.18-0.34,0.32-0.7,0.4-1.08c0.08-0.38,0.13-0.73,0.13-1.05l0.33-32.12
		c0-0.28-0.03-0.6-0.11-0.97c-0.08-0.36-0.2-0.7-0.38-1.03c-0.18-0.32-0.39-0.6-0.62-0.82c-0.24-0.22-0.52-0.34-0.84-0.34l-0.3,0
		L126.91,0.27z"/>
	<path class="st0" d="M167.73,20.96l8.59,0.66l-0.05,0.6l-0.3-0.02c-0.32-0.02-0.61,0.06-0.87,0.27c-0.26,0.2-0.48,0.46-0.66,0.76
		c-0.19,0.31-0.34,0.64-0.47,0.99c-0.13,0.35-0.2,0.67-0.22,0.95l-1.24,16.1c-0.74,0.23-1.58,0.4-2.52,0.53
		c-0.94,0.13-1.91,0.22-2.92,0.29c-1.01,0.06-2.04,0.09-3.09,0.09c-1.05,0-2.01-0.03-2.89-0.1c-3.6-0.28-6.7-1.12-9.29-2.53
		c-2.59-1.41-4.69-3.15-6.31-5.23c-1.61-2.08-2.76-4.37-3.43-6.88c-0.67-2.51-0.91-5.01-0.72-7.49c0.19-2.48,0.81-4.91,1.86-7.29
		c1.05-2.38,2.54-4.46,4.47-6.24s4.29-3.16,7.09-4.14s6.06-1.32,9.78-1.03c1.4,0.11,2.7,0.33,3.88,0.66
		c1.18,0.33,2.23,0.63,3.13,0.91c0.51,0.16,0.95,0.31,1.33,0.43c0.37,0.13,0.7,0.21,0.98,0.23l0.54,0.04L173.9,9.9l-0.6-0.05
		c-0.14-1.26-0.54-2.3-1.18-3.11c-0.64-0.82-1.41-1.46-2.3-1.93c-0.89-0.47-1.84-0.82-2.85-1.04c-1.01-0.22-1.96-0.36-2.84-0.43
		c-3-0.23-5.65,0.1-7.93,0.99c-2.29,0.89-4.19,2.12-5.73,3.7c-1.53,1.57-2.72,3.39-3.56,5.44c-0.84,2.05-1.35,4.12-1.51,6.2
		c-0.18,2.32,0.08,4.65,0.79,6.98c0.71,2.33,1.79,4.45,3.26,6.36c1.46,1.91,3.29,3.5,5.46,4.77c2.18,1.28,4.65,2.02,7.41,2.23
		c0.76,0.06,1.71,0.04,2.84-0.05c1.13-0.09,2.29-0.42,3.46-0.97l1.09-14.12c0.02-0.28,0.01-0.6-0.05-0.97
		c-0.05-0.37-0.16-0.72-0.31-1.05c-0.16-0.33-0.34-0.62-0.57-0.86c-0.22-0.24-0.5-0.37-0.82-0.4l-0.3-0.02L167.73,20.96z"/>
	<path class="st0" d="M201.53,46.66l0.3,0.05c0.95,0.17,1.5-0.18,1.66-1.05c0.06-0.32,0.06-0.66,0-1.04l-2.74-15.37l-10.38-1.87
		l-7.72,13.24c-0.18,0.29-0.29,0.58-0.34,0.86c-0.09,0.51-0.03,0.94,0.2,1.29c0.22,0.35,0.49,0.55,0.81,0.6l0.3,0.05l-0.11,0.59
		l-6.58-1.19l0.11-0.59l0.3,0.05c0.51,0.09,1.07-0.12,1.68-0.65c0.6-0.52,1.14-1.17,1.61-1.94l20.11-33.72l6.82,38.22
		c0.13,0.84,0.38,1.68,0.74,2.52c0.36,0.84,0.93,1.33,1.72,1.48l0.3,0.05l-0.11,0.59l-8.78-1.58L201.53,46.66z M191.33,25.46
		l9.13,1.65l-2.33-13.22L191.33,25.46z"/>
	<path class="st0" d="M213.02,49.08l0.29,0.08c0.31,0.09,0.61,0.06,0.9-0.09c0.29-0.15,0.57-0.35,0.83-0.61
		c0.26-0.26,0.49-0.55,0.68-0.87c0.19-0.32,0.33-0.64,0.42-0.95l8.69-31.05c0.08-0.27,0.11-0.59,0.11-0.97s-0.04-0.74-0.13-1.1
		c-0.09-0.36-0.22-0.68-0.39-0.95c-0.17-0.28-0.41-0.46-0.72-0.55l-0.29-0.08l0.16-0.58l22.34,6.25l-1.51,5.4l-0.58-0.16
		c0.17-0.91,0.04-1.79-0.39-2.64c-0.43-0.85-1.3-1.46-2.62-1.83l-11.67-3.26l-4.11,14.68l9.63,2.7c0.89,0.25,1.71,0.19,2.46-0.19
		c0.75-0.37,1.23-0.93,1.44-1.66l0.58,0.16l-2.03,7.25l-0.58-0.16c0.19-0.7,0.07-1.38-0.37-2.04c-0.44-0.66-1.12-1.13-2.05-1.39
		l-9.63-2.69l-4.92,17.58l12.71,3.56c0.74,0.21,1.42,0.21,2.06,0.01c0.64-0.2,1.21-0.48,1.71-0.87c0.5-0.38,0.92-0.83,1.25-1.34
		c0.33-0.51,0.55-0.96,0.66-1.35l0.58,0.16l-1.9,6.79l-23.79-6.66L213.02,49.08z"/>
	<path class="st0" d="M42.18,104.41l0.29-0.08c0.27-0.08,0.49-0.26,0.65-0.56s0.29-0.62,0.38-0.98c0.09-0.36,0.12-0.73,0.09-1.12
		c-0.03-0.39-0.08-0.74-0.17-1.05l-8.65-30.5l-5.06,39.14L6.12,80.19l8.14,28.7c0.09,0.31,0.22,0.64,0.4,0.98
		c0.18,0.35,0.4,0.65,0.66,0.91c0.26,0.26,0.54,0.47,0.84,0.64c0.3,0.17,0.6,0.21,0.91,0.12l0.29-0.08l0.16,0.58l-6.32,1.79
		l-0.17-0.58l0.29-0.08c0.27-0.08,0.49-0.26,0.66-0.56s0.28-0.62,0.35-0.98c0.07-0.35,0.09-0.72,0.06-1.11
		c-0.03-0.39-0.08-0.74-0.17-1.05l-8.77-30.9c-0.08-0.27-0.2-0.57-0.38-0.89c-0.18-0.33-0.39-0.62-0.63-0.89
		c-0.24-0.26-0.51-0.47-0.8-0.62s-0.57-0.18-0.84-0.11l-0.29,0.08l-0.17-0.58l5.91-1.68l22.45,27.9l4.45-35.53l6.55-1.86l0.16,0.58
		l-0.29,0.08c-0.31,0.09-0.55,0.27-0.72,0.55c-0.17,0.28-0.3,0.6-0.39,0.96c-0.09,0.36-0.12,0.72-0.1,1.09
		c0.02,0.37,0.07,0.69,0.15,0.96l8.77,30.9c0.09,0.31,0.22,0.64,0.4,0.98c0.18,0.35,0.4,0.65,0.67,0.91s0.54,0.47,0.84,0.64
		s0.6,0.21,0.91,0.12l0.29-0.08l0.16,0.58l-8.23,2.33L42.18,104.41z"/>
	<path class="st0" d="M77.95,97.76l0.3-0.05c0.95-0.15,1.36-0.66,1.22-1.54c-0.05-0.32-0.16-0.65-0.34-0.98l-7.66-13.61l-10.42,1.65
		l-2.92,15.05c-0.07,0.34-0.08,0.64-0.04,0.92c0.08,0.52,0.29,0.9,0.61,1.15c0.32,0.25,0.65,0.35,0.96,0.3l0.3-0.05l0.09,0.59
		l-6.61,1.05l-0.09-0.59l0.3-0.05c0.52-0.08,0.97-0.47,1.37-1.16c0.4-0.69,0.69-1.48,0.88-2.37l7.86-38.47l19.04,33.83
		c0.4,0.75,0.91,1.46,1.53,2.14c0.62,0.68,1.32,0.95,2.11,0.82l0.3-0.05l0.09,0.6l-8.81,1.4L77.95,97.76z M61.33,81.12l9.17-1.46
		l-6.56-11.71L61.33,81.12z"/>
	<path class="st0" d="M95.84,95.73l0.3-0.02l0.04,0.6l-6.68,0.4l-0.04-0.6l0.3-0.02c0.28-0.02,0.54-0.15,0.79-0.41
		c0.25-0.26,0.44-0.55,0.58-0.88c0.14-0.33,0.25-0.69,0.33-1.08c0.08-0.39,0.11-0.74,0.09-1.06L89.64,60.6
		c-0.02-0.28-0.07-0.6-0.15-0.96s-0.21-0.69-0.39-1c-0.18-0.31-0.42-0.57-0.71-0.77c-0.29-0.2-0.64-0.29-1.04-0.27l-0.3,0.02
		l-0.04-0.6l6.08-0.36l23.88,33.11l-1.83-30.68c-0.02-0.28-0.09-0.6-0.21-0.95c-0.12-0.36-0.28-0.69-0.48-1
		c-0.2-0.31-0.43-0.57-0.68-0.77c-0.25-0.21-0.54-0.3-0.86-0.28l-0.3,0.02l-0.04-0.6l6.74-0.4l0.04,0.6l-0.3,0.02
		c-0.32,0.02-0.59,0.15-0.82,0.38c-0.23,0.24-0.42,0.52-0.58,0.85c-0.16,0.33-0.27,0.68-0.33,1.05c-0.06,0.37-0.08,0.69-0.06,0.97
		l2.14,35.97l-3.73,0.22L91.83,61.92l1.82,30.62c0.02,0.32,0.08,0.67,0.18,1.05c0.1,0.38,0.25,0.72,0.45,1.03
		c0.2,0.31,0.43,0.58,0.68,0.8S95.51,95.75,95.84,95.73z"/>
	<path class="st0" d="M151.24,84.89c-0.05,2.01-0.5,3.71-1.35,5.12c-0.84,1.4-1.91,2.53-3.21,3.38c-1.29,0.85-2.74,1.45-4.34,1.81
		c-1.6,0.36-3.19,0.52-4.76,0.47c-1.61-0.04-3-0.24-4.16-0.6c-1.16-0.35-2.22-0.68-3.18-0.99c-0.64-0.22-1.22-0.4-1.73-0.56
		c-0.52-0.15-1.04-0.24-1.56-0.25l0.19-6.87l0.6,0.02c-0.04,1.53,0.32,2.75,1.08,3.68c0.76,0.92,1.65,1.64,2.69,2.15
		c1.04,0.51,2.07,0.85,3.12,1.02c1.04,0.17,1.81,0.26,2.29,0.27c1.73,0.05,3.23-0.16,4.49-0.63c1.26-0.47,2.31-1.1,3.14-1.9
		c0.83-0.8,1.45-1.7,1.86-2.69c0.41-0.99,0.63-2.01,0.66-3.06c0.04-1.33-0.22-2.45-0.75-3.37c-0.54-0.92-1.25-1.73-2.13-2.44
		c-0.89-0.71-1.9-1.32-3.06-1.83c-1.15-0.51-2.32-1.03-3.51-1.54c-1.35-0.56-2.68-1.14-3.99-1.74c-1.31-0.6-2.48-1.32-3.5-2.17
		c-1.02-0.85-1.84-1.86-2.45-3.02s-0.89-2.59-0.85-4.27c0.05-1.77,0.43-3.29,1.15-4.58c0.72-1.29,1.66-2.34,2.83-3.15
		c1.17-0.81,2.49-1.41,3.97-1.79c1.48-0.38,2.98-0.55,4.5-0.51c1.04,0.03,2.03,0.13,2.95,0.29c0.92,0.17,1.8,0.36,2.64,0.58
		c0.68,0.18,1.34,0.33,1.98,0.45c0.64,0.12,1.26,0.18,1.86,0.2l-0.17,6.21l-0.6-0.02c-0.02-2.09-0.81-3.53-2.36-4.31
		c-1.55-0.79-3.72-1.22-6.5-1.29c-1.61-0.04-2.94,0.19-3.98,0.71c-1.04,0.51-1.88,1.16-2.5,1.92c-0.63,0.77-1.06,1.6-1.31,2.5
		c-0.25,0.9-0.38,1.69-0.4,2.37c-0.03,1.12,0.19,2.1,0.68,2.91c0.48,0.82,1.14,1.54,1.97,2.16c0.83,0.63,1.79,1.19,2.89,1.71
		s2.24,1.01,3.44,1.48c1.35,0.56,2.73,1.16,4.12,1.8c1.39,0.64,2.63,1.42,3.72,2.33c1.08,0.91,1.96,2.02,2.63,3.33
		C150.98,81.47,151.29,83.05,151.24,84.89z"/>
	<path class="st0" d="M159.14,56.42l8.53,0.72l-0.05,0.6l-0.3-0.03c-0.28-0.02-0.55,0.06-0.81,0.26c-0.26,0.2-0.48,0.44-0.67,0.73
		c-0.19,0.29-0.35,0.62-0.48,0.99c-0.13,0.37-0.21,0.7-0.23,0.98l-2.72,32.01c-0.03,0.32-0.02,0.67,0.03,1.06s0.15,0.75,0.3,1.08
		c0.15,0.34,0.33,0.63,0.53,0.89c0.2,0.26,0.46,0.4,0.78,0.43l0.3,0.03l-0.05,0.6l-8.53-0.72l0.05-0.6l0.3,0.03
		c0.32,0.03,0.61-0.06,0.87-0.26c0.26-0.2,0.49-0.46,0.7-0.79c0.21-0.32,0.37-0.67,0.48-1.05c0.11-0.37,0.18-0.72,0.21-1.04l2.72-32
		c0.02-0.28,0.01-0.6-0.04-0.97c-0.05-0.37-0.15-0.72-0.3-1.05c-0.15-0.33-0.34-0.62-0.56-0.86c-0.22-0.24-0.49-0.37-0.81-0.4
		l-0.3-0.03L159.14,56.42z"/>
	<path class="st0" d="M196.18,60.3c3.09,0.52,5.77,1.53,8.04,3.03c2.27,1.5,4.12,3.32,5.53,5.45c1.41,2.13,2.38,4.5,2.9,7.09
		s0.56,5.22,0.11,7.87c-0.5,2.97-1.5,5.61-3.01,7.93c-1.51,2.31-3.36,4.2-5.57,5.66c-2.2,1.46-4.64,2.49-7.33,3.08
		c-2.69,0.59-5.46,0.64-8.31,0.16c-3.05-0.51-5.7-1.53-7.95-3.05c-2.25-1.52-4.06-3.33-5.44-5.44c-1.38-2.1-2.32-4.42-2.83-6.95
		c-0.51-2.53-0.55-5.08-0.12-7.66c0.43-2.54,1.3-4.97,2.63-7.29c1.33-2.32,3.04-4.31,5.12-5.95c2.09-1.64,4.5-2.85,7.24-3.61
		C189.94,59.87,192.93,59.76,196.18,60.3z M189.71,98.63c2.68,0.33,5.11,0.12,7.3-0.64c2.19-0.75,4.1-1.86,5.73-3.31
		c1.63-1.46,2.95-3.14,3.94-5.05c0.99-1.91,1.66-3.86,1.99-5.84c0.37-2.18,0.34-4.44-0.08-6.8s-1.21-4.55-2.38-6.6
		s-2.68-3.81-4.53-5.28c-1.86-1.47-4.05-2.42-6.59-2.85c-2.46-0.41-4.76-0.24-6.88,0.52s-4.02,1.88-5.68,3.35
		c-1.66,1.47-3.02,3.2-4.08,5.18c-1.07,1.98-1.77,3.98-2.11,6c-0.37,2.18-0.32,4.44,0.15,6.78c0.46,2.34,1.28,4.52,2.45,6.55
		c1.17,2.03,2.66,3.77,4.48,5.21C185.23,97.31,187.33,98.23,189.71,98.63z"/>
	<path class="st0" d="M219.72,105.84l0.29,0.09l-0.17,0.58l-6.41-1.9l0.17-0.58l0.29,0.09c0.27,0.08,0.56,0.04,0.88-0.12
		c0.32-0.16,0.6-0.37,0.85-0.63c0.25-0.26,0.47-0.56,0.68-0.9c0.2-0.34,0.35-0.66,0.44-0.97l9.13-30.8
		c0.08-0.27,0.14-0.59,0.19-0.95c0.04-0.36,0.04-0.72-0.03-1.08s-0.2-0.68-0.4-0.97c-0.21-0.29-0.5-0.5-0.89-0.61l-0.29-0.08
		l0.17-0.58l5.83,1.73l11.18,39.27l8.74-29.47c0.08-0.27,0.12-0.59,0.13-0.97c0.01-0.38-0.03-0.74-0.11-1.1
		c-0.08-0.36-0.21-0.68-0.38-0.96c-0.17-0.28-0.41-0.47-0.71-0.56L249,74.3l0.17-0.58l6.47,1.92l-0.17,0.58l-0.29-0.09
		c-0.31-0.09-0.61-0.06-0.9,0.08c-0.29,0.14-0.57,0.34-0.84,0.6s-0.49,0.55-0.67,0.87c-0.18,0.32-0.31,0.62-0.39,0.89l-10.24,34.55
		l-3.58-1.06l-11.08-39.37l-8.72,29.41c-0.09,0.31-0.15,0.66-0.18,1.04c-0.03,0.39-0.01,0.76,0.08,1.12
		c0.08,0.36,0.21,0.69,0.37,0.99C219.18,105.56,219.42,105.75,219.72,105.84z"/>
</g>
</svg>
